<mxfile host="app.diagrams.net" modified="2023-08-15T13:04:24.546Z" agent="Mozilla/5.0 (Windows NT 10.0; Win64; x64) AppleWebKit/537.36 (KHTML, like Gecko) Chrome/115.0.0.0 Safari/537.36" version="21.6.8" etag="TD4JjqQNEWhpYts_6N6H" type="github">
  <diagram name="PÃ¡gina-1" id="VRPh1KOn_wqQvNZL0Oux">
    <mxGraphModel>
      <root>
        <mxCell id="0" />
        <mxCell id="1" parent="0" />
      </root>
    </mxGraphModel>
  </diagram>
</mxfile>
